<svg xmlns="http://www.w3.org/2000/svg" viewBox="0 0 24 24" width="24" height="24">
    <path fill="#25D366" d="M17.472 14.382c-.297-.149-1.758-.867-2.03-.967-.273-.099-.471-.148-.67.15-.197.297-.767.966-.94 1.164-.173.199-.347.223-.644.075-.297-.15-1.255-.463-2.39-1.475-.883-.788-1.48-1.761-1.653-2.059-.173-.297-.018-.458.13-.606.134-.133.298-.347.446-.52.149-.174.198-.298.298-.497.099-.198.05-.371-.025-.52-.075-.149-.669-1.612-.916-2.207-.242-.579-.487-.5-.669-.51-.173-.008-.371-.01-.57-.01-.198 0-.52.074-.792.372-.272.297-1.04 1.016-1.04 2.479 0 1.462 1.065 2.875 1.213 3.074.149.198 2.096 3.2 5.077 4.487.709.306 1.262.489 1.694.625.712.227 1.36.195 1.871.118.571-.085 1.758-.719 2.006-1.413.248-.694.248-1.289.173-1.413-.074-.124-.272-.198-.57-.347z"/>
    <path fill="#25D366" d="M11.927 0C5.354 0 0 5.373 0 12c0 2.117.552 4.104 1.514 5.835L.057 24l6.304-1.654A11.9 11.9 0 0 0 11.927 24C18.5 24 24 18.627 24 12S18.5 0 11.927 0zm0 21.818a9.818 9.818 0 0 1-5.001-1.368l-.36-.213-3.717.975.994-3.62-.234-.372A9.801 9.801 0 0 1 2.182 12c0-5.367 4.378-9.818 9.745-9.818 5.368 0 9.746 4.451 9.746 9.818s-4.378 9.818-9.746 9.818z"/>
</svg>
